<svg xmlns="http://www.w3.org/2000/svg" xmlns:xlink="http://www.w3.org/1999/xlink" id="Google_Play_Logo" data-name="Google Play Logo" width="1500" height="445" viewBox="0 0 1500 445"><defs><linearGradient id="linear-gradient" x1="0.908" y1="1.032" x2="-0.383" y2="0.36" gradientUnits="objectBoundingBox"><stop offset="0" stop-color="#00a0ff"></stop><stop offset="0.007" stop-color="#00a1ff"></stop><stop offset="0.26" stop-color="#00beff"></stop><stop offset="0.512" stop-color="#00d2ff"></stop><stop offset="0.76" stop-color="#00dfff"></stop><stop offset="1" stop-color="#00e3ff"></stop></linearGradient><linearGradient id="linear-gradient-2" x1="1.077" y1="0.729" x2="-1.307" y2="0.729" gradientUnits="objectBoundingBox"><stop offset="0" stop-color="#ffe000"></stop><stop offset="0.409" stop-color="#ffbd00"></stop><stop offset="0.775" stop-color="orange"></stop><stop offset="1" stop-color="#ff9c00"></stop></linearGradient><linearGradient id="linear-gradient-3" x1="0.864" y1="-0.023" x2="-0.499" y2="-1.789" gradientUnits="objectBoundingBox"><stop offset="0" stop-color="#ff3a44"></stop><stop offset="1" stop-color="#c31162"></stop></linearGradient><linearGradient id="linear-gradient-4" x1="-0.186" y1="2.701" x2="0.423" y2="1.909" gradientUnits="objectBoundingBox"><stop offset="0" stop-color="#32a071"></stop><stop offset="0.069" stop-color="#2da771"></stop><stop offset="0.476" stop-color="#15cf74"></stop><stop offset="0.801" stop-color="#06e775"></stop><stop offset="1" stop-color="#00f076"></stop></linearGradient></defs><path id="Path_713" data-name="Path 713" d="M1444.444,445H55.556A55.05,55.05,0,0,1,0,389.375V55.625A55.05,55.05,0,0,1,55.556,0H1444.444A55.05,55.05,0,0,1,1500,55.625v333.75A55.05,55.05,0,0,1,1444.444,445Z" transform="translate(0 0)"></path><path id="Path_714" data-name="Path 714" d="M1444.444,8.9a46.978,46.978,0,0,1,46.667,46.725v333.75a46.978,46.978,0,0,1-46.667,46.725H55.556A46.978,46.978,0,0,1,8.889,389.375V55.625A46.978,46.978,0,0,1,55.556,8.9Zm0-8.9H55.556C24.444,0,0,25.587,0,55.625v333.75A55.05,55.05,0,0,0,55.556,445H1444.444A55.05,55.05,0,0,0,1500,389.375V55.625C1500,25.587,1475.556,0,1444.444,0Z" transform="translate(0 0)" fill="#a6a6a6"></path><path id="Path_716" data-name="Path 716" d="M341.1,69.387c-26.667,0-47.778,20.025-47.778,47.837A47.454,47.454,0,0,0,341.1,165.062c26.667,0,47.778-20.025,47.778-47.837C388.878,88.3,367.767,69.387,341.1,69.387Zm0,75.65c-14.444,0-26.667-12.238-26.667-28.925S326.656,87.187,341.1,87.187s26.667,11.125,26.667,28.925C367.767,132.8,355.544,145.037,341.1,145.037ZM237.767,69.387c-26.667,0-47.778,20.025-47.778,47.837a47.454,47.454,0,0,0,47.778,47.837c26.667,0,47.778-20.025,47.778-47.837C285.544,88.3,264.433,69.387,237.767,69.387Zm0,75.65c-14.444,0-26.667-12.238-26.667-28.925s12.222-28.925,26.667-28.925,26.667,11.125,26.667,28.925C264.433,132.8,252.211,145.037,237.767,145.037ZM114.433,83.85v20.025h47.778C161.1,115,156.656,123.9,151.1,129.462c-6.667,6.675-17.778,14.463-36.667,14.463-30,0-52.222-23.363-52.222-53.4s23.333-53.4,52.222-53.4c15.556,0,27.778,6.675,36.667,14.462l14.444-14.462C153.322,26,137.767,17.1,115.544,17.1c-40,0-74.444,33.375-74.444,73.425s34.444,73.425,74.444,73.425c22.222,0,37.778-6.675,51.111-21.137,13.333-13.35,17.778-32.263,17.778-46.725,0-4.45,0-8.9-1.111-12.238ZM618.878,99.425c-4.444-11.125-15.556-30.038-40-30.038S534.433,88.3,534.433,117.225c0,26.7,20,47.837,46.667,47.837,21.111,0,34.444-13.35,38.889-21.137L604.433,132.8c-5.556,7.788-12.222,13.35-23.333,13.35s-17.778-4.45-23.333-14.462l63.333-26.7ZM554.433,115c0-17.8,14.444-27.812,24.444-27.812,7.778,0,15.556,4.45,17.778,10.012Zm-52.222,45.613h21.111V21.55H502.211ZM468.878,79.4c-5.556-5.562-14.444-11.125-25.556-11.125-23.333,0-45.556,21.138-45.556,47.837s21.111,46.725,45.556,46.725c11.111,0,20-5.562,24.444-11.125h1.111v6.675c0,17.8-10,27.813-25.556,27.813-12.222,0-21.111-8.9-23.333-16.688L402.211,177.3c5.556,12.237,18.889,27.813,42.222,27.813,24.444,0,44.444-14.462,44.444-48.95V71.613h-20Zm-24.444,65.638c-14.445,0-26.667-12.238-26.667-28.925s12.222-28.925,26.667-28.925,25.556,12.237,25.556,28.925S458.878,145.038,444.433,145.038ZM715.544,21.55h-50V160.613h21.111V108.325h28.889c23.333,0,45.556-16.687,45.556-43.387S738.878,21.55,715.544,21.55Zm1.111,66.75h-30V40.463h30c15.556,0,24.444,13.35,24.444,23.363C739.989,76.063,731.1,88.3,716.656,88.3ZM844.433,68.275c-15.556,0-31.111,6.675-36.667,21.138L826.656,97.2c4.444-7.787,11.111-10.012,18.889-10.012,11.111,0,21.111,6.675,22.222,17.8V106.1c-3.333-2.225-12.222-5.563-21.111-5.563-20,0-40,11.125-40,31.15,0,18.913,16.667,31.15,34.444,31.15,14.444,0,21.111-6.675,26.667-13.35h1.111v11.125h20v-53.4c-2.222-24.475-21.111-38.937-44.444-38.937Zm-2.222,76.762c-6.667,0-16.667-3.337-16.667-12.238,0-11.125,12.222-14.462,22.222-14.462,8.889,0,13.333,2.225,18.889,4.45C864.433,136.138,853.322,145.038,842.211,145.038ZM958.878,71.613l-23.333,60.075h-1.111L909.989,71.613H887.767l36.667,84.55-21.111,46.725h21.111L981.1,71.613Zm-186.667,89h21.111V21.55H772.211Z" transform="translate(415.567 173.137)" fill="#fff"></path><path id="Path_717" data-name="Path 717" d="M14.444,7.5C11.111,10.837,10,16.4,10,23.075V268.938c0,6.675,2.222,12.237,5.556,15.575l1.111,1.112,137.778-137.95V145.45Z" transform="translate(101.111 75.938)" fill="url(#linear-gradient)"></path><path id="Path_718" data-name="Path 718" d="M68.456,110.362,22.9,64.75V61.412L68.456,15.8l1.111,1.113,54.444,31.15c15.556,8.9,15.556,23.363,0,32.262Z" transform="translate(231.544 159.975)" fill="url(#linear-gradient-2)"></path><path id="Path_719" data-name="Path 719" d="M195.956,66.725,149.289,20,10.4,159.062c5.556,5.563,13.333,5.563,23.333,1.113Z" transform="translate(105.156 202.5)" fill="url(#linear-gradient-3)"></path><path id="Path_720" data-name="Path 720" d="M195.956,103.166,33.733,10.828c-10-5.563-17.778-4.45-23.333,1.113l138.889,137.95Z" transform="translate(105.156 72.609)" fill="url(#linear-gradient-4)"></path><path id="Path_721" data-name="Path 721" d="M194.844,24.1,33.733,115.325c-8.889,5.563-16.667,4.45-22.222,0L10.4,116.437l1.111,1.112c5.556,4.45,13.333,5.562,22.222,0Z" transform="translate(105.156 244.013)" opacity="0.2"></path><path id="Path_722" data-name="Path 722" d="M14.444,156.837C11.111,153.5,10,147.938,10,141.262v1.113c0,6.675,2.222,12.237,5.556,15.575v-1.112Zm240-122.375-55.556,31.15L200,66.725l54.444-31.15c7.778-4.45,11.111-10.013,11.111-15.575C265.556,25.562,261.111,30.012,254.444,34.462Z" transform="translate(101.111 202.5)" opacity="0.12"></path><path id="Path_723" data-name="Path 723" d="M37.778,12.185,254.444,135.672c6.667,4.45,11.111,8.9,11.111,14.463,0-5.562-3.333-11.125-11.111-15.575L37.778,11.072C22.222,2.172,10,8.847,10,26.647V27.76C10,11.072,22.222,3.285,37.778,12.185Z" transform="translate(101.111 72.365)" fill="#fff" opacity="0.25"></path><text id="Download_on" data-name="Download on" transform="translate(457 157)" fill="#fff" font-size="110" font-family="ProximaNova-Semibold, Proxima Nova" font-weight="600"><tspan x="0" y="0">Download on</tspan></text></svg>