<svg xmlns="http://www.w3.org/2000/svg" id="AppStore_Logo" data-name="AppStore Logo" width="1500" height="445" viewBox="0 0 1500 445"><path id="Path_694" data-name="Path 694" d="M1490.849,393.24a42.6,42.6,0,0,1-42.623,42.62H53.359a42.652,42.652,0,0,1-42.678-42.62V53.356A42.707,42.707,0,0,1,53.359,10.68H1448.213a42.647,42.647,0,0,1,42.624,42.676l.011,339.884Z" transform="translate(-0.786 -0.776)" fill="#fff"></path><path id="Path_695" data-name="Path 695" d="M1447.438,445H52.573A52.612,52.612,0,0,1,0,392.464V52.591A52.645,52.645,0,0,1,52.573,0H1447.427A52.667,52.667,0,0,1,1500,52.591V392.464A52.6,52.6,0,0,1,1447.439,445Z" fill="#a6a6a6"></path><path id="Path_696" data-name="Path 696" d="M1490.849,393.24a42.6,42.6,0,0,1-42.623,42.62H53.359a42.652,42.652,0,0,1-42.678-42.62V53.356A42.707,42.707,0,0,1,53.359,10.68H1448.213a42.647,42.647,0,0,1,42.624,42.676l.011,339.884Z" transform="translate(-0.786 -0.776)"></path><path id="Path_697" data-name="Path 697" d="M346.231,225.578c-.322-35.866,29.338-53.315,30.695-54.127-16.8-24.515-42.834-27.865-51.983-28.132-21.867-2.3-43.079,13.1-54.218,13.1-11.362,0-28.516-12.875-47-12.5-23.791.367-46.046,14.155-58.254,35.565-25.191,43.655-6.4,107.809,17.733,143.1,12.072,17.293,26.181,36.578,44.646,35.9,18.065-.734,24.814-11.518,46.614-11.518,21.6,0,27.937,11.518,46.769,11.084,19.389-.3,31.6-17.36,43.247-34.8a142.742,142.742,0,0,0,19.777-40.317c-.446-.156-37.644-14.377-38.022-57.354ZM310.656,120.107c9.715-12.163,16.364-28.71,14.519-45.5-14.064.623-31.651,9.737-41.779,21.633-8.96,10.483-16.965,27.664-14.9,43.822,15.8,1.18,32.018-7.979,42.157-19.953Z" transform="translate(-11.293 -5.421)" fill="#fff"></path><g id="Group_221" data-name="Group 221" transform="translate(471.702 200.296)"><path id="Path_699" data-name="Path 699" d="M634.061,366.273H608.814l-13.83-43.5H546.913l-13.174,43.5H509.16L556.8,218.18h29.416l47.848,148.092Zm-43.245-61.75-12.507-38.67q-1.984-5.926-7.461-27.9h-.444q-2.2,9.448-7.026,27.9l-12.3,38.67h39.733Zm165.513,7.044q0,27.242-14.787,43.055-13.239,14.07-32.885,14.066-21.195,0-30.461-15.145v56.03h-23.7V294.586q0-17.111-.877-35.1h20.845l1.323,16.926h.444q11.856-19.129,36-19.13,18.877,0,31.495,14.934,12.59,14.974,12.608,39.35Zm-24.147.868q0-15.59-7.026-25.717a24.275,24.275,0,0,0-20.633-10.537A24.632,24.632,0,0,0,688.614,282a26.993,26.993,0,0,0-9.326,15.279,31.008,31.008,0,0,0-1.1,7.223v17.815a28.588,28.588,0,0,0,7.137,19.675q7.137,8.012,18.543,8.022c8.928,0,15.876-3.46,20.845-10.327q7.469-10.332,7.47-27.253Zm146.847-.868q0,27.242-14.786,43.055-13.257,14.07-32.9,14.066-21.195,0-30.461-15.145v56.03h-23.7V294.586q0-17.111-.878-35.1h20.845l1.323,16.926h.445q11.84-19.129,36-19.13,18.86,0,31.507,14.934,12.575,14.974,12.607,39.35Zm-24.158.868q0-15.59-7.037-25.717a24.236,24.236,0,0,0-20.611-10.537A24.734,24.734,0,0,0,811.292,282a26.988,26.988,0,0,0-9.316,15.279,31.731,31.731,0,0,0-1.112,7.223v17.815a28.685,28.685,0,0,0,7.126,19.675c4.758,5.33,10.939,8.022,18.566,8.022,8.937,0,15.885-3.46,20.845-10.327q7.471-10.332,7.471-27.253Zm161.344,12.3q0,18.912-13.151,30.769-14.443,12.953-40.3,12.964-23.88,0-38.31-9.225l5.481-19.775a65.891,65.891,0,0,0,34.241,9.236q13.407,0,20.845-6.043a19.749,19.749,0,0,0,7.482-16.136,20.689,20.689,0,0,0-6.159-15.167c-4.1-4.1-10.884-7.912-20.41-11.417q-38.856-14.505-38.867-42.42,0-18.228,13.72-29.879t36.331-11.65q20.194,0,33.585,7.033l-5.948,19.34a58.679,58.679,0,0,0-28.428-6.81c-8.359,0-14.919,2.059-19.611,6.154a17.62,17.62,0,0,0-5.948,13.42,18.147,18.147,0,0,0,6.815,14.5q5.9,5.257,21.5,11.417,19.11,7.712,28.093,18.005,9.055,10.313,9.038,25.682Zm78.571-47.439h-26.126v51.846q0,19.78,13.831,19.763a41.644,41.644,0,0,0,10.528-1.1l.655,18.016q-7,2.622-18.432,2.626-14.041,0-21.956-8.58-7.888-8.58-7.9-28.788V277.248h-15.565v-17.8h15.565V239.891l23.278-7.033v26.585h26.126ZM1212.423,312q0,24.619-14.052,40.428-14.691,16.275-39.066,16.258-23.513,0-37.432-15.579-13.941-15.609-13.941-39.327,0-24.823,14.375-40.64,14.391-15.824,38.755-15.823,23.479,0,37.743,15.6,13.642,15.123,13.619,39.082Zm-24.569.545q0-14.674-6.348-25.195-7.454-12.719-21.3-12.718c-9.494,0-16.775,4.239-21.734,12.718q-6.37,10.533-6.359,25.639,0,14.69,6.359,25.206c5.125,8.48,12.273,12.719,21.534,12.719q13.591,0,21.3-12.931C1185.665,330.8,1187.854,322.35,1187.854,312.546Zm101.639-32.194a41.122,41.122,0,0,0-7.471-.658q-12.507,0-19.321,9.459-5.9,8.346-5.915,21.088v56.03h-23.7V293.117q0-18.445-.689-33.618h20.646l.867,20.43h.656A36.636,36.636,0,0,1,1266.415,263a28.643,28.643,0,0,1,17.131-5.72,37.9,37.9,0,0,1,5.925.435ZM1395.5,307.828a55.7,55.7,0,0,1-.868,10.761h-71.105q.4,15.824,10.317,24.192,8.99,7.446,23.257,7.456a78.579,78.579,0,0,0,28.771-5.041l3.713,16.458q-15.142,6.61-35.764,6.6-24.812,0-38.977-14.6-14.141-14.606-14.151-39.215,0-24.138,13.184-40.195,13.809-17.126,37.3-17.127,23.063,0,34.918,17.127,9.389,13.571,9.406,33.585Zm-22.6-6.154a32.144,32.144,0,0,0-4.6-18.239c-4.1-6.61-10.417-9.9-18.877-9.9-7.749,0-14.063,3.216-18.866,9.67a35.452,35.452,0,0,0-7.014,18.45Z" transform="translate(-509.16 -215.99)" fill="#fff"></path></g><text id="Download_on_the" data-name="Download on the" transform="translate(495 167)" fill="#fff" font-size="110" font-family="ProximaNova-Semibold, Proxima Nova" font-weight="600"><tspan x="0" y="0">Download on the</tspan></text></svg>